<svg xmlns="http://www.w3.org/2000/svg" viewBox="0 0 512 512" width="512" height="512">
  <defs>
    <linearGradient id="grad1" x1="0%" y1="0%" x2="100%" y2="100%">
      <stop offset="0%" style="stop-color:#8B5CF6;stop-opacity:1" />
      <stop offset="100%" style="stop-color:#6366F1;stop-opacity:1" />
    </linearGradient>
  </defs>

  <!--
    Symbol Construction:
    - Base: A solid geometric 'D' shape formed by a square with rounded right corners.
    - Negative Space: A carved-out channel that separates the center, creating an 'F' structure on the left.
    - The middle bar of the 'F' extends into the center but does not touch the right curve, maintaining a 'D' silhouette while highlighting the 'F'.
  -->
  <path d="M80 64 H256 C362.08 64 448 149.92 448 256 C448 362.08 362.08 448 256 448 H80 C71.16 448 64 440.84 64 432 V80 C64 71.16 71.16 64 80 64 Z
           M160 160 V224 H288 C296.84 224 304 231.16 304 240 V272 C304 280.84 296.84 288 288 288 H160 V352 H256 C309.02 352 352 309.02 352 256 C352 202.98 309.02 160 256 160 H160 Z"
        fill="url(#grad1)" fill-rule="evenodd" />
</svg>